<!DOCTYPE svg PUBLIC "-//W3C//DTD SVG 1.1//EN" "http://www.w3.org/Graphics/SVG/1.1/DTD/svg11.dtd">
<!-- Uploaded to: SVG Repo, www.svgrepo.com, Transformed by: SVG Repo Mixer Tools -->
<svg fill="#fcfcfc" height="800px" width="800px" version="1.1" id="Capa_1" xmlns="http://www.w3.org/2000/svg" xmlns:xlink="http://www.w3.org/1999/xlink" viewBox="0 0 470 470" xml:space="preserve">
<g id="SVGRepo_bgCarrier" stroke-width="0"/>
<g id="SVGRepo_tracerCarrier" stroke-linecap="round" stroke-linejoin="round"/>
<g id="SVGRepo_iconCarrier"> <path d="M401.17,68.83C356.785,24.444,297.771,0,235,0S113.215,24.444,68.83,68.83C24.444,113.216,0,172.229,0,235 s24.444,121.784,68.83,166.17C113.215,445.556,172.229,470,235,470s121.785-24.444,166.17-68.83 C445.556,356.784,470,297.771,470,235S445.556,113.216,401.17,68.83z M235,455c-121.309,0-220-98.691-220-220S113.691,15,235,15 s220,98.691,220,220S356.309,455,235,455z"/> <path d="M335.861,103.139c4.147,0.06,7.571-3.195,7.66-7.336c0.09-4.142-3.195-7.571-7.336-7.66 c-19.516-0.458-37.334,11.163-45.296,28.508c-17.888-6.627-38.681-2.231-52.186,11.87c-2.865,2.991-2.763,7.739,0.229,10.604 c1.454,1.393,3.321,2.084,5.187,2.084c1.974,0,3.944-0.774,5.417-2.313c6.778-7.077,16.213-10.62,25.609-10.279 c-11.818,9.264-19.162,23.782-18.825,39.391c0.088,4.086,3.428,7.338,7.495,7.338c0.054,0,0.11-0.001,0.165-0.002 c4.141-0.089,7.426-3.519,7.336-7.66c-0.211-9.796,3.955-18.973,10.84-25.376c-1.806,14.907,3.267,30.366,14.542,41.165 c1.454,1.392,3.321,2.083,5.187,2.083c1.974,0,3.945-0.774,5.417-2.313c2.865-2.991,2.763-7.739-0.229-10.604 c-9.205-8.815-12.432-22.127-8.907-34.001c33.534,26.776,55.789,66.405,62.247,110.865h-23.46c-4.142,0-7.5,3.357-7.5,7.5 s3.358,7.5,7.5,7.5h31.915c0.007,0,0.014,0.001,0.021,0.001c0.006,0,0.013-0.001,0.019-0.001h36.982c4.142,0,7.5-3.357,7.5-7.5 s-3.358-7.5-7.5-7.5h-30.333c-6.424-47.878-29.78-90.798-65.289-120.335c10.935-2.021,22.578,1.41,30.548,9.73 c1.473,1.538,3.444,2.313,5.417,2.313c1.865,0,3.733-0.691,5.187-2.084c2.992-2.864,3.094-7.612,0.229-10.604 c-10.8-11.277-26.263-16.35-41.173-14.541C316.871,107.097,326.041,102.932,335.861,103.139z"/> <path d="M235,25C119.206,25,25,119.206,25,235c0,50.33,18.083,99.016,50.919,137.087c2.705,3.136,7.44,3.485,10.578,0.781 c3.137-2.706,3.486-7.441,0.781-10.578C56.791,326.941,40,281.735,40,235c0-107.523,87.477-195,195-195s195,87.477,195,195 s-87.477,195-195,195c-46.735,0-91.941-16.79-127.29-47.278c-3.136-2.704-7.873-2.354-10.578,0.781 c-2.705,3.137-2.355,7.873,0.781,10.578C135.985,426.917,184.67,445,235,445c115.794,0,210-94.206,210-210S350.794,25,235,25z"/> <path d="M399.757,279.5h-32.803c-4.142,0-7.5,3.357-7.5,7.5s3.358,7.5,7.5,7.5h32.803c4.142,0,7.5-3.357,7.5-7.5 S403.899,279.5,399.757,279.5z"/> <path d="M107.469,291.816v-18.035c5.057,1.078,10.282,1.949,15.636,2.589v20.919c0,4.143,3.358,7.5,7.5,7.5s7.5-3.357,7.5-7.5 v-19.74c2.592,0.104,5.198,0.167,7.818,0.167c2.62,0,5.226-0.063,7.818-0.167v19.74c0,4.143,3.358,7.5,7.5,7.5s7.5-3.357,7.5-7.5 v-20.919c5.354-0.64,10.579-1.511,15.636-2.589v18.035c0,4.143,3.358,7.5,7.5,7.5s7.5-3.357,7.5-7.5v-22.034 c4.485-1.457,8.77-3.091,12.784-4.919c0.969-0.441,1.911-0.905,2.852-1.368v15.052c0,4.143,3.358,7.5,7.5,7.5s7.5-3.357,7.5-7.5 v-70.97c0-24.153-36.151-42.368-84.09-42.368c-47.939,0-84.09,18.215-84.09,42.368v70.97c0,4.143,3.358,7.5,7.5,7.5 s7.5-3.357,7.5-7.5v-15.054c0.942,0.463,1.882,0.928,2.852,1.37c4.014,1.827,8.299,3.462,12.784,4.919v22.034 c0,4.143,3.358,7.5,7.5,7.5S107.469,295.959,107.469,291.816z M145.923,180.21c39.543,0,69.09,14.449,69.09,27.368 s-29.547,27.368-69.09,27.368c-39.543,0-69.09-14.449-69.09-27.368S106.38,180.21,145.923,180.21z M76.833,246.41v-14.069 c14.932,10.798,39.802,17.605,69.09,17.605c29.289,0,54.158-6.807,69.09-17.605v14.075c-2.798,1.714-5.833,3.321-9.067,4.794 c-4.985,2.27-10.444,4.223-16.256,5.848c-0.021,0.006-0.042,0.012-0.063,0.019c-13.173,3.674-28.175,5.64-43.704,5.64 c-15.53,0-30.531-1.966-43.705-5.641c-0.02-0.006-0.039-0.011-0.059-0.017c-5.813-1.624-11.273-3.578-16.259-5.848 C82.664,249.737,79.634,248.126,76.833,246.41z"/> <path d="M266.438,238.152c-3.587,2.071-4.816,6.658-2.745,10.245l5.625,9.742c1.389,2.406,3.91,3.751,6.502,3.751 c1.272,0,2.562-0.324,3.743-1.006c3.587-2.071,4.816-6.658,2.745-10.245l-5.625-9.742 C274.612,237.31,270.025,236.082,266.438,238.152z"/> <path d="M180.165,347c0,4.143,3.358,7.5,7.5,7.5h41.407l-57.826,33.386c-3.587,2.071-4.816,6.658-2.745,10.245 c1.389,2.406,3.91,3.751,6.502,3.751c1.272,0,2.562-0.324,3.743-1.006l80.326-46.376h105.263c4.142,0,7.5-3.357,7.5-7.5 s-3.358-7.5-7.5-7.5h-79.282l29.917-17.273c0.002-0.001,0.004-0.002,0.007-0.003c13.289-7.672,17.858-24.726,10.186-38.015 l-6.923-11.991l-19.392-33.587c-2.071-3.588-6.659-4.814-10.245-2.745c-3.587,2.071-4.816,6.658-2.745,10.245l15.642,27.092 l-22.22,12.829l-15.641-27.092c-2.072-3.587-6.659-4.815-10.245-2.745c-3.587,2.071-4.816,6.658-2.745,10.245l19.391,33.587 l6.923,11.991c2.267,3.926,5.437,7.162,9.153,9.529L255.053,339.5h-67.388C183.523,339.5,180.165,342.857,180.165,347z M301.082,310.956L301.082,310.956c-4.58,0-8.844-2.46-11.13-6.418l-3.173-5.496L309,286.213l3.173,5.496 c3.537,6.126,1.431,13.987-4.696,17.524C305.525,310.36,303.314,310.956,301.082,310.956z"/> <path d="M141.99,126.208c-4.142,0-7.5,3.357-7.5,7.5s3.358,7.5,7.5,7.5h56.13c4.142,0,7.5-3.357,7.5-7.5s-3.358-7.5-7.5-7.5H141.99z "/> <path d="M221.62,103.708c0-4.143-3.358-7.5-7.5-7.5h-88.13c-4.142,0-7.5,3.357-7.5,7.5s3.358,7.5,7.5,7.5h88.13 C218.262,111.208,221.62,107.851,221.62,103.708z"/> </g>
</svg>