<!DOCTYPE svg PUBLIC "-//W3C//DTD SVG 1.1//EN" "http://www.w3.org/Graphics/SVG/1.1/DTD/svg11.dtd">
<!-- Uploaded to: SVG Repo, www.svgrepo.com, Transformed by: SVG Repo Mixer Tools -->
<svg fill="#ffffff" version="1.1" id="Capa_1" xmlns="http://www.w3.org/2000/svg" xmlns:xlink="http://www.w3.org/1999/xlink" width="800px" height="800px" viewBox="0 0 359.09 359.09" xml:space="preserve">
<g id="SVGRepo_bgCarrier" stroke-width="0"/>
<g id="SVGRepo_tracerCarrier" stroke-linecap="round" stroke-linejoin="round"/>
<g id="SVGRepo_iconCarrier"> <g> <path d="M359.09,139.004H243.6v11.568c-10.986-15.8-30.639-26.346-53.178-26.346c-24.593,0-45.768,12.551-55.965,30.803 l-0.003-16.141H99.09l-31.449,43.841l-37.809-43.84H0.203L0,219.971h28.024l0.269-39.114l36.966,42.295h6.866l34.134-42.295 l0.356,39.114h27.856l-0.003-15.893c10.206,18.238,31.372,30.785,55.954,30.785c34.562,0,62.477-24.727,62.477-55.323 c0-4.258-0.59-8.383-1.611-12.359h37.23l-52.646,52.903h117.301V193.57h-46.916L359.09,139.004z M190.422,203.774 c-15.245,0-27.524-10.879-27.524-24.378c0-13.5,12.281-24.374,27.524-24.374c15.256,0,27.533,10.874,27.533,24.374 C217.955,192.896,205.678,203.774,190.422,203.774z"/> </g> </g>
</svg>